# xmcd
#
# Track frame offsets:
#	150
#	12512
#	24337
#	34225
#	48725
#	58272
#	72660
#	84272
#	94637
#	108755
#	119430
#	132725
#	144247
#	155325
#	168197
#	180312
#	188915
#	200925
#	215240
#	226762
#
# Disc length: 3223 seconds
#
# Revision: 0
# Processed by: cddbd v1.4PL0 Copyright (c) Steve Scherf et al.
# Submitted via: dBpowerAMP V4.0
#
DISCID=1f0c9514
DTITLE=Various Artist - Cowboy Classics Disc 1
DYEAR=1900
DGENRE=
TTITLE0=Sons of The Pioneers - Track01
TTITLE1=Gene Autry - Track02
TTITLE2=The Sons of The Pioneers - Track03
TTITLE3=Slim Whitman - Track04
TTITLE4=Sonsof the Pioneers - Track05
TTITLE5=Gene Autry - Track06
TTITLE6=Slim Whitman - Track07
TTITLE7=Sons of the Pioneers - Track08
TTITLE8=Patsy Montana - Track09
TTITLE9=Gene Autry - Track10
TTITLE10=Dale Evins - Track11
TTITLE11=Burl Ives - Track12
TTITLE12=Bing Crosby - Track13
TTITLE13=Jimmy Davis - Track14
TTITLE14=Gene Autry - Track15
TTITLE15=Tex Ritter - Track16
TTITLE16=Gene Autry - Track17
TTITLE17=Eddy Arnold - Track18
TTITLE18=Slim Whitman - Track19
TTITLE19=The Weavers - Track20
EXTD=Cowboy Classics. - Cool Water
EXTT0=
EXTT1=
EXTT2=
EXTT3=
EXTT4=
EXTT5=
EXTT6=
EXTT7=
EXTT8=
EXTT9=
EXTT10=
EXTT11=
EXTT12=
EXTT13=
EXTT14=
EXTT15=
EXTT16=
EXTT17=
EXTT18=
EXTT19=
PLAYORDER=
